# xmcd
#
# Track frame offsets:
#	150
#	23864
#	42389
#	61714
#	78076
#	88508
#	107509
#	128655
#	148449
#	165988
#
# Disc length: 2425 seconds
#
# Revision: 1
# Processed by: cddbd v1.5.2PL0 Copyright (c) Steve Scherf et al.
# Submitted via: audiograbber 1.83.01
#
DISCID=7509770a
DTITLE=Sampha - Process
DYEAR=2017
DGENRE=R&B
TTITLE0=Plastic 100°C
TTITLE1=Blood on me
TTITLE2=Kora sings
TTITLE3=(No one knows me) like the piano
TTITLE4=Take me inside
TTITLE5=Reverse faults
TTITLE6=Under
TTITLE7=Timmy's prayer
TTITLE8=Incomplete kisses
TTITLE9=What shouldn't I be?
EXTD=
EXTT0=
EXTT1=
EXTT2=
EXTT3=
EXTT4=
EXTT5=
EXTT6=
EXTT7=
EXTT8=
EXTT9=
PLAYORDER=
